# Blender v2.79 (sub 0) OBJ File: 'personaje_tut.blend'
# www.blender.org
o Cube.001
v -0.329796 0.484951 -0.093972
v -0.328561 0.476393 -0.299281
v -0.395000 0.503462 -0.300809
v -0.396235 0.512020 -0.095500
v -0.266737 0.689735 -0.102129
v -0.265501 0.681177 -0.307437
v -0.331941 0.708246 -0.308966
v -0.333176 0.716804 -0.103657
v -0.249373 0.746537 -0.120873
v -0.248336 0.739351 -0.293278
v -0.304127 0.762082 -0.294561
v -0.305165 0.769268 -0.122157
v -0.239649 0.790859 -0.146330
v -0.238896 0.785642 -0.271482
v -0.279396 0.802143 -0.272414
v -0.280149 0.807359 -0.147262
v -0.235958 0.809163 -0.175126
v -0.235542 0.806281 -0.244268
v -0.257916 0.815397 -0.244782
v -0.258332 0.818279 -0.175640
v -0.286037 0.594983 -0.319677
v -0.287461 0.604848 -0.083007
v -0.362625 0.626187 -0.321438
v -0.364049 0.636052 -0.084768
v -0.425063 0.367473 -0.146979
v -0.436475 0.358418 -0.193358
v -0.361813 0.489008 -0.091211
v -0.296836 0.700022 -0.099616
v -0.360541 0.480190 -0.302765
v -0.295563 0.691204 -0.311169
v -0.322804 0.614432 -0.080018
v -0.321337 0.604267 -0.323887
v -0.245089 0.814921 -0.174372
v -0.244661 0.811951 -0.245617
v -0.408498 0.360196 -0.145162
v -0.367708 0.369921 -0.201023
v -0.257133 0.799417 -0.144891
v -0.256357 0.794041 -0.273849
v -0.274104 0.756579 -0.118819
v -0.273035 0.749174 -0.296467
v -0.407926 0.356231 -0.240285
v -0.287556 0.815823 -0.210880
v -0.237469 0.791374 -0.209621
v -0.317454 0.768839 -0.209375
v -0.247354 0.744623 -0.207967
v -0.424508 0.363625 -0.239294
v -0.394634 0.351454 -0.238607
v -0.243232 0.817426 -0.210480
v -0.381484 0.346173 -0.200111
v -0.421616 0.491880 -0.198647
v -0.351006 0.704940 -0.207104
v -0.322670 0.461727 -0.204390
v -0.265164 0.685307 -0.205765
v -0.416987 0.342031 -0.171811
v -0.420500 0.337214 -0.192304
v -0.398461 0.388330 -0.127753
v -0.397668 0.382838 -0.259524
v -0.425005 0.342692 -0.172501
v -0.436535 0.387803 -0.194588
v -0.395190 0.355302 -0.146291
v -0.429908 0.338801 -0.192430
v -0.388003 0.607076 -0.203428
v -0.276858 0.571952 -0.208890
v -0.256920 0.820880 -0.210690
v -0.233837 0.811475 -0.210160
v -0.412169 0.337462 -0.172206
v -0.420726 0.400348 -0.130340
v -0.419957 0.395018 -0.258223
v -0.378573 0.378157 -0.257271
v -0.379343 0.383487 -0.129389
v -0.414478 0.332514 -0.192075
v -0.411930 0.335809 -0.211873
v -0.424766 0.341039 -0.212168
v -0.416741 0.340328 -0.212684
vn 0.9672 -0.2539 0.0042
vn 0.9014 -0.4328 0.0106
vn 0.5905 -0.4365 -0.6787
vn 0.0207 -0.0290 -0.9994
vn -0.0708 -0.2774 -0.9581
vn -0.6840 -0.0022 -0.7294
vn -0.9549 0.2963 -0.0197
vn -0.9792 0.2023 -0.0161
vn -0.6942 0.0558 0.7176
vn 0.6672 -0.1249 0.7343
vn 0.0086 0.0543 0.9985
vn -0.0842 -0.2014 0.9759
vn 0.4845 -0.5451 0.6842
vn 0.8683 -0.4959 -0.0091
vn 0.7685 0.0687 0.6362
vn 0.1417 0.3746 0.9163
vn 0.0848 0.2442 0.9660
vn 0.8038 0.2940 0.5171
vn 0.2537 0.6458 0.7201
vn -0.8551 0.5177 -0.0282
vn -0.9121 0.4092 -0.0238
vn -0.5680 0.4519 0.6879
vn -0.4615 0.5314 -0.7103
vn 0.1529 0.2971 -0.9425
vn 0.0966 0.1630 -0.9819
vn 0.7761 0.0159 -0.6304
vn 0.9694 -0.2449 0.0159
vn 0.9750 -0.2215 0.0156
vn 0.8649 0.4425 0.2367
vn 0.3760 0.8672 0.3265
vn 0.8101 0.2503 -0.5301
vn 0.9823 -0.1868 0.0133
vn -0.3025 0.7474 -0.5914
vn 0.2626 0.5837 -0.7683
vn -0.3104 0.7942 0.5224
vn -0.5698 0.8208 -0.0393
vn 0.3951 0.9179 -0.0370
vn 0.9050 0.4252 -0.0129
vn 0.8679 0.4214 -0.2630
vn 0.0294 0.9674 0.2516
vn 0.0459 0.9980 -0.0421
vn 0.0342 0.9426 -0.3321
vn 0.3802 0.8367 -0.3941
vn 0.6722 -0.1807 -0.7179
vn -0.6185 0.2019 -0.7594
vn -0.6283 0.2642 0.7317
vn 0.7364 -0.0146 0.6764
vn -0.4707 0.5886 0.6572
vn 0.4775 -0.5888 -0.6521
vn 0.7445 -0.0704 -0.6638
vn -0.3833 -0.9230 0.0339
vn -0.3677 -0.8058 0.4642
vn -0.5495 -0.7272 0.4113
vn -0.7220 -0.3479 0.5979
vn -0.2457 -0.5928 0.7669
vn -0.1581 -0.3806 0.9111
vn 0.2926 -0.7668 -0.5712
vn -0.2347 -0.6499 -0.7229
vn -0.1446 -0.4482 -0.8821
vn -0.1620 -0.9857 0.0468
vn -0.3617 -0.8398 -0.4048
vn -0.7184 -0.1768 -0.6727
vn -0.9980 0.0622 -0.0109
vn -0.5586 0.3926 -0.7306
vn 0.5881 -0.3825 0.7126
vn -0.7123 -0.3941 -0.5808
vn -0.1259 -0.9084 0.3987
vn 0.6886 -0.7248 -0.0223
vn -0.7297 -0.1252 0.6721
vn -0.9850 -0.1722 -0.0015
vn -0.5424 -0.7585 -0.3612
vn -0.6694 -0.7425 0.0249
vn -0.1572 -0.9297 -0.3330
vn 0.3157 -0.7296 0.6066
s 1
f 63//1 52//2 2//3
f 32//4 29//5 3//6
f 62//7 50//8 4//9
f 22//10 31//11 27//12
f 70//13 36//14 52//2
f 9//15 39//16 28//17
f 13//18 37//19 39//16
f 44//20 51//21 8//22
f 11//23 40//24 30//25
f 10//26 45//27 53//28
f 17//29 33//30 37//19
f 14//31 43//32 45//27
f 15//33 38//34 40//24
f 16//35 42//36 44//20
f 48//37 65//38 18//39
f 20//40 64//41 42//36
f 18//39 65//38 43//32
f 19//42 34//43 38//34
f 53//28 63//1 21//44
f 30//25 32//4 23//45
f 51//21 62//7 24//46
f 5//47 28//17 31//11
f 12//48 8//22 28//17
f 16//35 12//48 39//16
f 14//31 10//26 40//24
f 21//44 2//3 29//5
f 52//2 36//14 69//49
f 20//40 16//35 37//19
f 31//11 24//46 4//9
f 10//26 6//50 30//25
f 19//42 64//41 48//37
f 18//39 14//31 38//34
f 6//50 21//44 32//4
f 28//17 8//22 24//46
f 48//37 33//30 17//29
f 55//51 54//52 58//53
f 20//40 33//30 48//37
f 25//54 35//55 56//56
f 9//15 5//47 53//28
f 47//57 41//58 57//59
f 71//60 55//51 74//61
f 62//7 23//45 3//6
f 68//62 59//63 50//8
f 44//20 11//23 7//64
f 19//42 15//33 42//36
f 63//1 22//10 1//65
f 13//18 9//15 45//27
f 17//29 13//18 43//32
f 51//21 7//64 23//45
f 15//33 11//23 44//20
f 57//59 41//58 46//66
f 27//12 56//56 70//13
f 66//67 71//60 49//68
f 35//55 54//52 66//67
f 53//28 5//47 22//10
f 50//8 59//63 67//69
f 59//63 26//70 25//54
f 73//71 61//72 26//70
f 49//68 71//60 72//73
f 71//60 66//67 54//52
f 60//74 49//68 36//14
f 36//14 49//68 47//57
f 56//56 35//55 60//74
f 29//5 57//59 68//62
f 55//51 61//72 73//71
f 69//49 57//59 29//5
f 46//66 26//70 59//63
f 72//73 74//61 41//58
f 26//70 61//72 58//53
f 67//69 56//56 27//12
f 41//58 74//61 73//71
f 58//53 54//52 35//55
f 63//1 2//3 21//44
f 32//4 3//6 23//45
f 62//7 4//9 24//46
f 22//10 27//12 1//65
f 70//13 52//2 1//65
f 9//15 28//17 5//47
f 13//18 39//16 9//15
f 44//20 8//22 12//48
f 11//23 30//25 7//64
f 10//26 53//28 6//50
f 17//29 37//19 13//18
f 14//31 45//27 10//26
f 15//33 40//24 11//23
f 16//35 44//20 12//48
f 48//37 18//39 34//43
f 20//40 42//36 16//35
f 18//39 43//32 14//31
f 19//42 38//34 15//33
f 53//28 21//44 6//50
f 30//25 23//45 7//64
f 51//21 24//46 8//22
f 5//47 31//11 22//10
f 12//48 28//17 39//16
f 16//35 39//16 37//19
f 14//31 40//24 38//34
f 21//44 29//5 32//4
f 52//2 69//49 2//3
f 20//40 37//19 33//30
f 31//11 4//9 27//12
f 10//26 30//25 40//24
f 19//42 48//37 34//43
f 18//39 38//34 34//43
f 6//50 32//4 30//25
f 28//17 24//46 31//11
f 48//37 17//29 65//38
f 55//51 58//53 61//72
f 20//40 48//37 64//41
f 25//54 56//56 67//69
f 9//15 53//28 45//27
f 47//57 57//59 69//49
f 71//60 74//61 72//73
f 62//7 3//6 50//8
f 68//62 50//8 3//6
f 44//20 7//64 51//21
f 19//42 42//36 64//41
f 63//1 1//65 52//2
f 13//18 45//27 43//32
f 17//29 43//32 65//38
f 51//21 23//45 62//7
f 15//33 44//20 42//36
f 57//59 46//66 68//62
f 27//12 70//13 1//65
f 66//67 49//68 60//74
f 35//55 66//67 60//74
f 53//28 22//10 63//1
f 50//8 67//69 4//9
f 59//63 25//54 67//69
f 73//71 26//70 46//66
f 49//68 72//73 47//57
f 71//60 54//52 55//51
f 60//74 36//14 70//13
f 36//14 47//57 69//49
f 56//56 60//74 70//13
f 29//5 68//62 3//6
f 55//51 73//71 74//61
f 69//49 29//5 2//3
f 46//66 59//63 68//62
f 72//73 41//58 47//57
f 26//70 58//53 25//54
f 67//69 27//12 4//9
f 41//58 73//71 46//66
f 58//53 35//55 25//54
