# Blender v2.79 (sub 0) OBJ File: 'personaje_tut.blend'
# www.blender.org
o Cube
v 0.541654 0.477840 -0.098555
v 0.538577 0.482040 -0.304014
v 0.603097 0.511327 -0.304382
v 0.606174 0.507128 -0.098923
v 0.469654 0.682001 -0.093304
v 0.466577 0.686200 -0.298763
v 0.531097 0.715488 -0.299130
v 0.534174 0.711289 -0.093672
v 0.449629 0.739664 -0.108300
v 0.447045 0.743190 -0.280831
v 0.501225 0.767784 -0.281139
v 0.503809 0.764258 -0.108609
v 0.437672 0.785450 -0.130844
v 0.435796 0.788010 -0.256087
v 0.475126 0.805863 -0.256312
v 0.477002 0.803303 -0.131068
v 0.432855 0.805511 -0.158405
v 0.431818 0.806926 -0.227598
v 0.453547 0.816789 -0.227722
v 0.454583 0.815375 -0.158529
v 0.490763 0.601065 -0.316567
v 0.494310 0.596224 -0.079724
v 0.565138 0.634827 -0.316991
v 0.568685 0.629986 -0.080148
v 0.640840 0.366121 -0.159631
v 0.652050 0.360275 -0.206588
v 0.573201 0.482714 -0.095807
v 0.499011 0.693085 -0.090395
v 0.570030 0.487041 -0.307515
v 0.495840 0.697412 -0.302104
v 0.528896 0.606733 -0.076428
v 0.525241 0.611721 -0.320475
v 0.441639 0.811522 -0.157366
v 0.440571 0.812979 -0.228663
v 0.624793 0.358199 -0.158140
v 0.571738 0.367923 -0.205694
v 0.454604 0.794482 -0.129012
v 0.452671 0.797120 -0.258065
v 0.473676 0.750368 -0.105821
v 0.471013 0.754001 -0.283599
v 0.623368 0.360145 -0.253333
v 0.483247 0.815999 -0.194098
v 0.434796 0.789856 -0.193968
v 0.515042 0.769649 -0.195794
v 0.446764 0.743122 -0.195337
v 0.639456 0.368009 -0.252014
v 0.610445 0.354840 -0.251849
v 0.439289 0.816236 -0.193234
v 0.586487 0.344445 -0.206389
v 0.631107 0.494127 -0.203355
v 0.551245 0.706385 -0.197820
v 0.522859 0.458921 -0.202913
v 0.467166 0.683983 -0.197014
v 0.633746 0.341888 -0.185952
v 0.637223 0.338439 -0.206739
v 0.613744 0.385048 -0.138911
v 0.611769 0.387743 -0.270780
v 0.641648 0.342838 -0.186665
v 0.650737 0.389852 -0.205969
v 0.611829 0.352952 -0.159466
v 0.646465 0.340326 -0.206842
v 0.592445 0.609041 -0.200608
v 0.472349 0.568456 -0.200098
v 0.452680 0.820132 -0.193339
v 0.430264 0.809956 -0.193212
v 0.629182 0.337179 -0.186594
v 0.635207 0.397950 -0.140921
v 0.633290 0.400566 -0.268897
v 0.593102 0.382323 -0.268668
v 0.595019 0.379707 -0.140692
v 0.631480 0.333524 -0.206756
v 0.628588 0.337990 -0.226289
v 0.641053 0.343649 -0.226360
v 0.633134 0.342724 -0.226854
vn -0.9673 -0.2537 0.0059
vn -0.5502 -0.4044 -0.7305
vn -0.8791 -0.4766 0.0002
vn -0.0301 0.0320 -0.9990
vn 0.6764 0.0735 -0.7329
vn 0.0702 -0.2127 -0.9746
vn 0.9420 0.3353 -0.0088
vn 0.6996 0.0418 0.7133
vn 0.9696 0.2443 -0.0113
vn -0.6350 -0.1762 0.7521
vn 0.1011 -0.2568 0.9611
vn -0.0001 -0.0088 0.9999
vn -0.4001 -0.5746 0.7140
vn -0.8644 -0.5028 -0.0034
vn -0.7633 -0.0046 0.6460
vn -0.0831 0.1782 0.9805
vn -0.1450 0.3082 0.9402
vn -0.8091 0.2251 0.5428
vn -0.2693 0.5865 0.7638
vn 0.8362 0.5484 -0.0027
vn 0.5591 0.4284 0.7098
vn 0.8959 0.4442 -0.0056
vn 0.4366 0.5893 -0.6797
vn -0.1123 0.2181 -0.9694
vn -0.1729 0.3463 -0.9220
vn -0.7823 0.0212 -0.6225
vn -0.9723 -0.2336 0.0096
vn -0.9583 -0.2857 0.0084
vn -0.8801 0.3887 0.2726
vn -0.4052 0.8288 0.3858
vn -0.8249 0.2465 -0.5087
vn -0.9733 -0.2293 0.0095
vn 0.2720 0.7913 -0.5476
vn -0.2917 0.6170 -0.7309
vn 0.2899 0.7688 0.5700
vn 0.5430 0.8397 0.0073
vn -0.4305 0.9022 0.0237
vn -0.8876 0.3986 -0.2308
vn -0.9221 0.3864 0.0211
vn -0.0568 0.9478 0.3136
vn -0.0779 0.9967 0.0208
vn -0.0669 0.9594 -0.2740
vn -0.4159 0.8433 -0.3404
vn -0.6560 -0.1444 -0.7407
vn 0.6029 0.2737 -0.7494
vn 0.6260 0.2434 0.7408
vn -0.7278 -0.0886 0.6800
vn 0.4580 0.5615 0.6891
vn -0.4199 -0.5378 -0.7310
vn -0.7480 -0.0612 -0.6609
vn 0.4188 -0.9077 -0.0270
vn 0.5826 -0.7273 0.3629
vn 0.4028 -0.8165 0.4136
vn 0.7426 -0.3504 0.5707
vn 0.1805 -0.4273 0.8859
vn 0.2746 -0.6265 0.7295
vn -0.1822 -0.7432 -0.6437
vn 0.1506 -0.3835 -0.9111
vn 0.2500 -0.5909 -0.7670
vn 0.2389 -0.9696 -0.0521
vn 0.3887 -0.7964 -0.4632
vn 0.7182 -0.1012 -0.6884
vn 0.9940 0.1078 -0.0150
vn 0.5371 0.4572 -0.7088
vn -0.5291 -0.4371 0.7273
vn 0.7221 -0.3233 -0.6115
vn 0.2328 -0.9041 0.3581
vn -0.6089 -0.7930 -0.0210
vn 0.7417 -0.1329 0.6574
vn 0.9920 -0.1245 -0.0201
vn 0.5684 -0.7105 -0.4148
vn 0.6991 -0.7145 -0.0271
vn -0.1684 -0.7649 0.6218
vn 0.0641 -0.9321 -0.3563
s 1
f 63//1 2//2 52//3
f 32//4 3//5 29//6
f 62//7 4//8 50//9
f 22//10 27//11 31//12
f 70//13 52//3 36//14
f 9//15 28//16 39//17
f 13//18 39//17 37//19
f 44//20 8//21 51//22
f 11//23 30//24 40//25
f 10//26 53//27 45//28
f 17//29 37//19 33//30
f 14//31 45//28 43//32
f 15//33 40//25 38//34
f 16//35 44//20 42//36
f 48//37 18//38 65//39
f 20//40 42//36 64//41
f 18//38 43//32 65//39
f 19//42 38//34 34//43
f 53//27 21//44 63//1
f 30//24 23//45 32//4
f 51//22 24//46 62//7
f 5//47 31//12 28//16
f 12//48 28//16 8//21
f 16//35 39//17 12//48
f 14//31 40//25 10//26
f 21//44 29//6 2//2
f 52//3 69//49 36//14
f 20//40 37//19 16//35
f 31//12 4//8 24//46
f 10//26 30//24 6//50
f 19//42 48//37 64//41
f 18//38 38//34 14//31
f 6//50 32//4 21//44
f 28//16 24//46 8//21
f 48//37 17//29 33//30
f 55//51 58//52 54//53
f 20//40 48//37 33//30
f 25//54 56//55 35//56
f 9//15 53//27 5//47
f 47//57 57//58 41//59
f 71//60 74//61 55//51
f 62//7 3//5 23//45
f 68//62 50//9 59//63
f 44//20 7//64 11//23
f 19//42 42//36 15//33
f 63//1 1//65 22//10
f 13//18 45//28 9//15
f 17//29 43//32 13//18
f 51//22 23//45 7//64
f 15//33 44//20 11//23
f 57//58 46//66 41//59
f 27//11 70//13 56//55
f 66//67 49//68 71//60
f 35//56 66//67 54//53
f 53//27 22//10 5//47
f 50//9 67//69 59//63
f 59//63 25//54 26//70
f 73//71 26//70 61//72
f 47//57 71//60 49//68
f 71//60 54//53 66//67
f 49//68 70//13 36//14
f 69//49 49//68 36//14
f 56//55 60//73 35//56
f 29//6 68//62 57//58
f 55//51 73//71 61//72
f 69//49 29//6 57//58
f 46//66 59//63 26//70
f 72//74 41//59 74//61
f 26//70 58//52 61//72
f 67//69 27//11 56//55
f 41//59 73//71 74//61
f 58//52 35//56 54//53
f 63//1 21//44 2//2
f 32//4 23//45 3//5
f 62//7 24//46 4//8
f 22//10 1//65 27//11
f 70//13 1//65 52//3
f 9//15 5//47 28//16
f 13//18 9//15 39//17
f 44//20 12//48 8//21
f 11//23 7//64 30//24
f 10//26 6//50 53//27
f 17//29 13//18 37//19
f 14//31 10//26 45//28
f 15//33 11//23 40//25
f 16//35 12//48 44//20
f 48//37 34//43 18//38
f 20//40 16//35 42//36
f 18//38 14//31 43//32
f 19//42 15//33 38//34
f 53//27 6//50 21//44
f 30//24 7//64 23//45
f 51//22 8//21 24//46
f 5//47 22//10 31//12
f 12//48 39//17 28//16
f 16//35 37//19 39//17
f 14//31 38//34 40//25
f 21//44 32//4 29//6
f 52//3 2//2 69//49
f 20//40 33//30 37//19
f 31//12 27//11 4//8
f 10//26 40//25 30//24
f 19//42 34//43 48//37
f 18//38 34//43 38//34
f 6//50 30//24 32//4
f 28//16 31//12 24//46
f 48//37 65//39 17//29
f 55//51 61//72 58//52
f 20//40 64//41 48//37
f 25//54 67//69 56//55
f 9//15 45//28 53//27
f 47//57 69//49 57//58
f 71//60 72//74 74//61
f 62//7 50//9 3//5
f 68//62 3//5 50//9
f 44//20 51//22 7//64
f 19//42 64//41 42//36
f 63//1 52//3 1//65
f 13//18 43//32 45//28
f 17//29 65//39 43//32
f 51//22 62//7 23//45
f 15//33 42//36 44//20
f 57//58 68//62 46//66
f 27//11 1//65 70//13
f 66//67 60//73 49//68
f 35//56 60//73 66//67
f 53//27 63//1 22//10
f 50//9 4//8 67//69
f 59//63 67//69 25//54
f 73//71 46//66 26//70
f 47//57 72//74 71//60
f 71//60 55//51 54//53
f 49//68 60//73 70//13
f 69//49 47//57 49//68
f 56//55 70//13 60//73
f 29//6 3//5 68//62
f 55//51 74//61 73//71
f 69//49 2//2 29//6
f 46//66 68//62 59//63
f 72//74 47//57 41//59
f 26//70 25//54 58//52
f 67//69 4//8 27//11
f 41//59 46//66 73//71
f 58//52 25//54 35//56
