# Blender v2.79 (sub 0) OBJ File: 'personaje_tut.blend'
# www.blender.org
g Cube.001
v -0.329796 0.484951 -0.093972
v -0.328561 0.476393 -0.299281
v -0.395000 0.503462 -0.300809
v -0.396235 0.512020 -0.095500
v -0.266737 0.689735 -0.102129
v -0.265501 0.681177 -0.307437
v -0.331941 0.708246 -0.308966
v -0.333176 0.716804 -0.103657
v -0.249373 0.746537 -0.120873
v -0.248336 0.739351 -0.293278
v -0.304127 0.762082 -0.294561
v -0.305165 0.769268 -0.122157
v -0.239649 0.790859 -0.146330
v -0.238896 0.785642 -0.271482
v -0.279396 0.802143 -0.272414
v -0.280149 0.807359 -0.147262
v -0.235958 0.809163 -0.175126
v -0.235542 0.806281 -0.244268
v -0.257916 0.815397 -0.244782
v -0.258332 0.818279 -0.175640
v -0.286037 0.594983 -0.319677
v -0.287461 0.604848 -0.083007
v -0.362625 0.626187 -0.321438
v -0.364049 0.636052 -0.084768
v -0.425063 0.367473 -0.146979
v -0.436475 0.358418 -0.193358
v -0.361813 0.489008 -0.091211
v -0.296836 0.700022 -0.099616
v -0.360541 0.480190 -0.302765
v -0.295563 0.691204 -0.311169
v -0.322804 0.614432 -0.080018
v -0.321337 0.604267 -0.323887
v -0.245089 0.814921 -0.174372
v -0.244661 0.811951 -0.245617
v -0.408498 0.360196 -0.145162
v -0.367708 0.369921 -0.201023
v -0.257133 0.799417 -0.144891
v -0.256357 0.794041 -0.273849
v -0.274104 0.756579 -0.118819
v -0.273035 0.749174 -0.296467
v -0.407926 0.356231 -0.240285
v -0.287556 0.815823 -0.210880
v -0.237469 0.791374 -0.209621
v -0.317454 0.768839 -0.209375
v -0.247354 0.744623 -0.207967
v -0.424508 0.363625 -0.239294
v -0.394634 0.351454 -0.238607
v -0.243232 0.817426 -0.210480
v -0.381484 0.346173 -0.200111
v -0.421616 0.491880 -0.198647
v -0.351006 0.704940 -0.207104
v -0.322670 0.461727 -0.204390
v -0.265164 0.685307 -0.205765
v -0.416987 0.342031 -0.171811
v -0.420500 0.337214 -0.192304
v -0.398461 0.388330 -0.127753
v -0.397668 0.382838 -0.259524
v -0.425005 0.342692 -0.172501
v -0.436535 0.387803 -0.194588
v -0.395190 0.355302 -0.146291
v -0.429908 0.338801 -0.192430
v -0.388003 0.607076 -0.203428
v -0.276858 0.571952 -0.208890
v -0.256920 0.820880 -0.210690
v -0.233837 0.811475 -0.210160
v -0.412169 0.337462 -0.172206
v -0.420726 0.400348 -0.130340
v -0.419957 0.395018 -0.258223
v -0.378573 0.378157 -0.257271
v -0.379343 0.383487 -0.129389
v -0.414478 0.332514 -0.192075
v -0.411930 0.335809 -0.211873
v -0.424766 0.341039 -0.212168
v -0.416741 0.340328 -0.212684
vn 0.9672 -0.2539 0.0042
vn 0.9014 -0.4328 0.0106
vn 0.5905 -0.4365 -0.6787
vn 0.0207 -0.0290 -0.9994
vn -0.0708 -0.2774 -0.9581
vn -0.6840 -0.0022 -0.7294
vn -0.9549 0.2963 -0.0197
vn -0.9792 0.2023 -0.0161
vn -0.6942 0.0558 0.7176
vn 0.6672 -0.1249 0.7343
vn 0.0086 0.0543 0.9985
vn -0.0842 -0.2014 0.9759
vn 0.4845 -0.5451 0.6842
vn 0.8683 -0.4959 -0.0091
vn 0.7685 0.0687 0.6362
vn 0.1417 0.3746 0.9163
vn 0.0848 0.2442 0.9660
vn 0.8038 0.2940 0.5171
vn 0.2537 0.6458 0.7201
vn -0.8551 0.5177 -0.0282
vn -0.9121 0.4092 -0.0238
vn -0.5680 0.4519 0.6879
vn -0.4615 0.5314 -0.7103
vn 0.1529 0.2971 -0.9425
vn 0.0966 0.1630 -0.9819
vn 0.7761 0.0159 -0.6304
vn 0.9694 -0.2449 0.0159
vn 0.9750 -0.2215 0.0156
vn 0.8649 0.4425 0.2367
vn 0.3760 0.8672 0.3265
vn 0.8101 0.2503 -0.5301
vn 0.9823 -0.1868 0.0133
vn -0.3025 0.7474 -0.5914
vn 0.2626 0.5837 -0.7683
vn -0.3104 0.7942 0.5224
vn -0.5698 0.8208 -0.0393
vn 0.3951 0.9179 -0.0370
vn 0.9050 0.4252 -0.0129
vn 0.8679 0.4214 -0.2630
vn 0.0294 0.9674 0.2516
vn 0.0459 0.9980 -0.0421
vn 0.0342 0.9426 -0.3321
vn 0.3802 0.8367 -0.3941
vn 0.6722 -0.1807 -0.7179
vn -0.6185 0.2019 -0.7594
vn -0.6283 0.2642 0.7317
vn 0.7364 -0.0146 0.6764
vn -0.4707 0.5886 0.6572
vn 0.4775 -0.5888 -0.6521
vn 0.7445 -0.0704 -0.6638
vn -0.3833 -0.9230 0.0339
vn -0.3677 -0.8058 0.4642
vn -0.5495 -0.7272 0.4113
vn -0.7220 -0.3479 0.5979
vn -0.2457 -0.5928 0.7669
vn -0.1581 -0.3806 0.9111
vn 0.2926 -0.7668 -0.5712
vn -0.2347 -0.6499 -0.7229
vn -0.1446 -0.4482 -0.8821
vn -0.1620 -0.9857 0.0468
vn -0.3617 -0.8398 -0.4048
vn -0.7184 -0.1768 -0.6727
vn -0.9980 0.0622 -0.0109
vn -0.5586 0.3926 -0.7306
vn 0.5881 -0.3825 0.7126
vn -0.7123 -0.3941 -0.5808
vn -0.1259 -0.9084 0.3987
vn 0.6886 -0.7248 -0.0223
vn -0.7297 -0.1252 0.6721
vn -0.9850 -0.1722 -0.0015
vn -0.5424 -0.7585 -0.3612
vn -0.6694 -0.7425 0.0249
vn -0.1572 -0.9297 -0.3330
vn 0.3157 -0.7296 0.6066
s 1
f 63//1 52//2 2//3
f 32//4 29//5 3//6
f 62//7 50//8 4//9
f 22//10 31//11 27//12
f 70//13 36//14 52//2
f 9//15 39//16 28//17
f 13//18 37//19 39//16
f 44//20 51//21 8//22
f 11//23 40//24 30//25
f 10//26 45//27 53//28
f 17//29 33//30 37//19
f 14//31 43//32 45//27
f 15//33 38//34 40//24
f 16//35 42//36 44//20
f 48//37 65//38 18//39
f 20//40 64//41 42//36
f 18//39 65//38 43//32
f 19//42 34//43 38//34
f 53//28 63//1 21//44
f 30//25 32//4 23//45
f 51//21 62//7 24//46
f 5//47 28//17 31//11
f 12//48 8//22 28//17
f 16//35 12//48 39//16
f 14//31 10//26 40//24
f 21//44 2//3 29//5
f 52//2 36//14 69//49
f 20//40 16//35 37//19
f 31//11 24//46 4//9
f 10//26 6//50 30//25
f 19//42 64//41 48//37
f 18//39 14//31 38//34
f 6//50 21//44 32//4
f 28//17 8//22 24//46
f 48//37 33//30 17//29
f 55//51 54//52 58//53
f 20//40 33//30 48//37
f 25//54 35//55 56//56
f 9//15 5//47 53//28
f 47//57 41//58 57//59
f 71//60 55//51 74//61
f 62//7 23//45 3//6
f 68//62 59//63 50//8
f 44//20 11//23 7//64
f 19//42 15//33 42//36
f 63//1 22//10 1//65
f 13//18 9//15 45//27
f 17//29 13//18 43//32
f 51//21 7//64 23//45
f 15//33 11//23 44//20
f 57//59 41//58 46//66
f 27//12 56//56 70//13
f 66//67 71//60 49//68
f 35//55 54//52 66//67
f 53//28 5//47 22//10
f 50//8 59//63 67//69
f 59//63 26//70 25//54
f 73//71 61//72 26//70
f 49//68 71//60 72//73
f 71//60 66//67 54//52
f 60//74 49//68 36//14
f 36//14 49//68 47//57
f 56//56 35//55 60//74
f 29//5 57//59 68//62
f 55//51 61//72 73//71
f 69//49 57//59 29//5
f 46//66 26//70 59//63
f 72//73 74//61 41//58
f 26//70 61//72 58//53
f 67//69 56//56 27//12
f 41//58 74//61 73//71
f 58//53 54//52 35//55
f 63//1 2//3 21//44
f 32//4 3//6 23//45
f 62//7 4//9 24//46
f 22//10 27//12 1//65
f 70//13 52//2 1//65
f 9//15 28//17 5//47
f 13//18 39//16 9//15
f 44//20 8//22 12//48
f 11//23 30//25 7//64
f 10//26 53//28 6//50
f 17//29 37//19 13//18
f 14//31 45//27 10//26
f 15//33 40//24 11//23
f 16//35 44//20 12//48
f 48//37 18//39 34//43
f 20//40 42//36 16//35
f 18//39 43//32 14//31
f 19//42 38//34 15//33
f 53//28 21//44 6//50
f 30//25 23//45 7//64
f 51//21 24//46 8//22
f 5//47 31//11 22//10
f 12//48 28//17 39//16
f 16//35 39//16 37//19
f 14//31 40//24 38//34
f 21//44 29//5 32//4
f 52//2 69//49 2//3
f 20//40 37//19 33//30
f 31//11 4//9 27//12
f 10//26 30//25 40//24
f 19//42 48//37 34//43
f 18//39 38//34 34//43
f 6//50 32//4 30//25
f 28//17 24//46 31//11
f 48//37 17//29 65//38
f 55//51 58//53 61//72
f 20//40 48//37 64//41
f 25//54 56//56 67//69
f 9//15 53//28 45//27
f 47//57 57//59 69//49
f 71//60 74//61 72//73
f 62//7 3//6 50//8
f 68//62 50//8 3//6
f 44//20 7//64 51//21
f 19//42 42//36 64//41
f 63//1 1//65 52//2
f 13//18 45//27 43//32
f 17//29 43//32 65//38
f 51//21 23//45 62//7
f 15//33 44//20 42//36
f 57//59 46//66 68//62
f 27//12 70//13 1//65
f 66//67 49//68 60//74
f 35//55 66//67 60//74
f 53//28 22//10 63//1
f 50//8 67//69 4//9
f 59//63 25//54 67//69
f 73//71 26//70 46//66
f 49//68 72//73 47//57
f 71//60 54//52 55//51
f 60//74 36//14 70//13
f 36//14 47//57 69//49
f 56//56 60//74 70//13
f 29//5 68//62 3//6
f 55//51 73//71 74//61
f 69//49 29//5 2//3
f 46//66 59//63 68//62
f 72//73 41//58 47//57
f 26//70 58//53 25//54
f 67//69 27//12 4//9
f 41//58 73//71 46//66
f 58//53 35//55 25//54
g Cube
v 0.541654 0.477840 -0.098555
v 0.538577 0.482040 -0.304014
v 0.603097 0.511327 -0.304382
v 0.606174 0.507128 -0.098923
v 0.469654 0.682001 -0.093304
v 0.466577 0.686200 -0.298763
v 0.531097 0.715488 -0.299130
v 0.534174 0.711289 -0.093672
v 0.449629 0.739664 -0.108300
v 0.447045 0.743190 -0.280831
v 0.501225 0.767784 -0.281139
v 0.503809 0.764258 -0.108609
v 0.437672 0.785450 -0.130844
v 0.435796 0.788010 -0.256087
v 0.475126 0.805863 -0.256312
v 0.477002 0.803303 -0.131068
v 0.432855 0.805511 -0.158405
v 0.431818 0.806926 -0.227598
v 0.453547 0.816789 -0.227722
v 0.454583 0.815375 -0.158529
v 0.490763 0.601065 -0.316567
v 0.494310 0.596224 -0.079724
v 0.565138 0.634827 -0.316991
v 0.568685 0.629986 -0.080148
v 0.640840 0.366121 -0.159631
v 0.652050 0.360275 -0.206588
v 0.573201 0.482714 -0.095807
v 0.499011 0.693085 -0.090395
v 0.570030 0.487041 -0.307515
v 0.495840 0.697412 -0.302104
v 0.528896 0.606733 -0.076428
v 0.525241 0.611721 -0.320475
v 0.441639 0.811522 -0.157366
v 0.440571 0.812979 -0.228663
v 0.624793 0.358199 -0.158140
v 0.571738 0.367923 -0.205694
v 0.454604 0.794482 -0.129012
v 0.452671 0.797120 -0.258065
v 0.473676 0.750368 -0.105821
v 0.471013 0.754001 -0.283599
v 0.623368 0.360145 -0.253333
v 0.483247 0.815999 -0.194098
v 0.434796 0.789856 -0.193968
v 0.515042 0.769649 -0.195794
v 0.446764 0.743122 -0.195337
v 0.639456 0.368009 -0.252014
v 0.610445 0.354840 -0.251849
v 0.439289 0.816236 -0.193234
v 0.586487 0.344445 -0.206389
v 0.631107 0.494127 -0.203355
v 0.551245 0.706385 -0.197820
v 0.522859 0.458921 -0.202913
v 0.467166 0.683983 -0.197014
v 0.633746 0.341888 -0.185952
v 0.637223 0.338439 -0.206739
v 0.613744 0.385048 -0.138911
v 0.611769 0.387743 -0.270780
v 0.641648 0.342838 -0.186665
v 0.650737 0.389852 -0.205969
v 0.611829 0.352952 -0.159466
v 0.646465 0.340326 -0.206842
v 0.592445 0.609041 -0.200608
v 0.472349 0.568456 -0.200098
v 0.452680 0.820132 -0.193339
v 0.430264 0.809956 -0.193212
v 0.629182 0.337179 -0.186594
v 0.635207 0.397950 -0.140921
v 0.633290 0.400566 -0.268897
v 0.593102 0.382323 -0.268668
v 0.595019 0.379707 -0.140692
v 0.631480 0.333524 -0.206756
v 0.628588 0.337990 -0.226289
v 0.641053 0.343649 -0.226360
v 0.633134 0.342724 -0.226854
vn -0.9673 -0.2537 0.0059
vn -0.5502 -0.4044 -0.7305
vn -0.8791 -0.4766 0.0002
vn -0.0301 0.0320 -0.9990
vn 0.6764 0.0735 -0.7329
vn 0.0702 -0.2127 -0.9746
vn 0.9420 0.3353 -0.0088
vn 0.6996 0.0418 0.7133
vn 0.9696 0.2443 -0.0113
vn -0.6350 -0.1762 0.7521
vn 0.1011 -0.2568 0.9611
vn -0.0001 -0.0088 0.9999
vn -0.4001 -0.5746 0.7140
vn -0.8644 -0.5028 -0.0034
vn -0.7633 -0.0046 0.6460
vn -0.0831 0.1782 0.9805
vn -0.1450 0.3082 0.9402
vn -0.8091 0.2251 0.5428
vn -0.2693 0.5865 0.7638
vn 0.8362 0.5484 -0.0027
vn 0.5591 0.4284 0.7098
vn 0.8959 0.4442 -0.0056
vn 0.4366 0.5893 -0.6797
vn -0.1123 0.2181 -0.9694
vn -0.1729 0.3463 -0.9220
vn -0.7823 0.0212 -0.6225
vn -0.9723 -0.2336 0.0096
vn -0.9583 -0.2857 0.0084
vn -0.8801 0.3887 0.2726
vn -0.4052 0.8288 0.3858
vn -0.8249 0.2465 -0.5087
vn -0.9733 -0.2293 0.0095
vn 0.2720 0.7913 -0.5476
vn -0.2917 0.6170 -0.7309
vn 0.2899 0.7688 0.5700
vn 0.5430 0.8397 0.0073
vn -0.4305 0.9022 0.0237
vn -0.8876 0.3986 -0.2308
vn -0.9221 0.3864 0.0211
vn -0.0568 0.9478 0.3136
vn -0.0779 0.9967 0.0208
vn -0.0669 0.9594 -0.2740
vn -0.4159 0.8433 -0.3404
vn -0.6560 -0.1444 -0.7407
vn 0.6029 0.2737 -0.7494
vn 0.6260 0.2434 0.7408
vn -0.7278 -0.0886 0.6800
vn 0.4580 0.5615 0.6891
vn -0.4199 -0.5378 -0.7310
vn -0.7480 -0.0612 -0.6609
vn 0.4188 -0.9077 -0.0270
vn 0.5826 -0.7273 0.3629
vn 0.4028 -0.8165 0.4136
vn 0.7426 -0.3504 0.5707
vn 0.1805 -0.4273 0.8859
vn 0.2746 -0.6265 0.7295
vn -0.1822 -0.7432 -0.6437
vn 0.1506 -0.3835 -0.9111
vn 0.2500 -0.5909 -0.7670
vn 0.2389 -0.9696 -0.0521
vn 0.3887 -0.7964 -0.4632
vn 0.7182 -0.1012 -0.6884
vn 0.9940 0.1078 -0.0150
vn 0.5371 0.4572 -0.7088
vn -0.5291 -0.4371 0.7273
vn 0.7221 -0.3233 -0.6115
vn 0.2328 -0.9041 0.3581
vn -0.6089 -0.7930 -0.0210
vn 0.7417 -0.1329 0.6574
vn 0.9920 -0.1245 -0.0201
vn 0.5684 -0.7105 -0.4148
vn 0.6991 -0.7145 -0.0271
vn -0.1684 -0.7649 0.6218
vn 0.0641 -0.9321 -0.3563
s 1
f 137//75 76//76 126//77
f 106//78 77//79 103//80
f 136//81 78//82 124//83
f 96//84 101//85 105//86
f 144//87 126//77 110//88
f 83//89 102//90 113//91
f 87//92 113//91 111//93
f 118//94 82//95 125//96
f 85//97 104//98 114//99
f 84//100 127//101 119//102
f 91//103 111//93 107//104
f 88//105 119//102 117//106
f 89//107 114//99 112//108
f 90//109 118//94 116//110
f 122//111 92//112 139//113
f 94//114 116//110 138//115
f 92//112 117//106 139//113
f 93//116 112//108 108//117
f 127//101 95//118 137//75
f 104//98 97//119 106//78
f 125//96 98//120 136//81
f 79//121 105//86 102//90
f 86//122 102//90 82//95
f 90//109 113//91 86//122
f 88//105 114//99 84//100
f 95//118 103//80 76//76
f 126//77 143//123 110//88
f 94//114 111//93 90//109
f 105//86 78//82 98//120
f 84//100 104//98 80//124
f 93//116 122//111 138//115
f 92//112 112//108 88//105
f 80//124 106//78 95//118
f 102//90 98//120 82//95
f 122//111 91//103 107//104
f 129//125 132//126 128//127
f 94//114 122//111 107//104
f 99//128 130//129 109//130
f 83//89 127//101 79//121
f 121//131 131//132 115//133
f 145//134 148//135 129//125
f 136//81 77//79 97//119
f 142//136 124//83 133//137
f 118//94 81//138 85//97
f 93//116 116//110 89//107
f 137//75 75//139 96//84
f 87//92 119//102 83//89
f 91//103 117//106 87//92
f 125//96 97//119 81//138
f 89//107 118//94 85//97
f 131//132 120//140 115//133
f 101//85 144//87 130//129
f 140//141 123//142 145//134
f 109//130 140//141 128//127
f 127//101 96//84 79//121
f 124//83 141//143 133//137
f 133//137 99//128 100//144
f 147//145 100//144 135//146
f 121//131 145//134 123//142
f 145//134 128//127 140//141
f 123//142 144//87 110//88
f 143//123 123//142 110//88
f 130//129 134//147 109//130
f 103//80 142//136 131//132
f 129//125 147//145 135//146
f 143//123 103//80 131//132
f 120//140 133//137 100//144
f 146//148 115//133 148//135
f 100//144 132//126 135//146
f 141//143 101//85 130//129
f 115//133 147//145 148//135
f 132//126 109//130 128//127
f 137//75 95//118 76//76
f 106//78 97//119 77//79
f 136//81 98//120 78//82
f 96//84 75//139 101//85
f 144//87 75//139 126//77
f 83//89 79//121 102//90
f 87//92 83//89 113//91
f 118//94 86//122 82//95
f 85//97 81//138 104//98
f 84//100 80//124 127//101
f 91//103 87//92 111//93
f 88//105 84//100 119//102
f 89//107 85//97 114//99
f 90//109 86//122 118//94
f 122//111 108//117 92//112
f 94//114 90//109 116//110
f 92//112 88//105 117//106
f 93//116 89//107 112//108
f 127//101 80//124 95//118
f 104//98 81//138 97//119
f 125//96 82//95 98//120
f 79//121 96//84 105//86
f 86//122 113//91 102//90
f 90//109 111//93 113//91
f 88//105 112//108 114//99
f 95//118 106//78 103//80
f 126//77 76//76 143//123
f 94//114 107//104 111//93
f 105//86 101//85 78//82
f 84//100 114//99 104//98
f 93//116 108//117 122//111
f 92//112 108//117 112//108
f 80//124 104//98 106//78
f 102//90 105//86 98//120
f 122//111 139//113 91//103
f 129//125 135//146 132//126
f 94//114 138//115 122//111
f 99//128 141//143 130//129
f 83//89 119//102 127//101
f 121//131 143//123 131//132
f 145//134 146//148 148//135
f 136//81 124//83 77//79
f 142//136 77//79 124//83
f 118//94 125//96 81//138
f 93//116 138//115 116//110
f 137//75 126//77 75//139
f 87//92 117//106 119//102
f 91//103 139//113 117//106
f 125//96 136//81 97//119
f 89//107 116//110 118//94
f 131//132 142//136 120//140
f 101//85 75//139 144//87
f 140//141 134//147 123//142
f 109//130 134//147 140//141
f 127//101 137//75 96//84
f 124//83 78//82 141//143
f 133//137 141//143 99//128
f 147//145 120//140 100//144
f 121//131 146//148 145//134
f 145//134 129//125 128//127
f 123//142 134//147 144//87
f 143//123 121//131 123//142
f 130//129 144//87 134//147
f 103//80 77//79 142//136
f 129//125 148//135 147//145
f 143//123 76//76 103//80
f 120//140 142//136 133//137
f 146//148 121//131 115//133
f 100//144 99//128 132//126
f 141//143 78//82 101//85
f 115//133 120//140 147//145
f 132//126 99//128 109//130
