# Blender v2.79 (sub 0) OBJ File: 'personaje_tut.blend'
# www.blender.org
mtllib pata_de.mtl
o Cube.002
v 0.152832 -0.011687 -0.151616
v 0.197676 -0.011687 -0.261568
v 0.285032 -0.011687 -0.261568
v 0.327847 -0.011687 -0.151616
v 0.157985 0.026478 -0.151616
v 0.197676 0.026478 -0.261568
v 0.285032 0.026478 -0.261568
v 0.319594 0.026478 -0.151616
v 0.211785 0.026478 -0.262492
v 0.211785 -0.011687 -0.274287
v 0.211785 0.026478 -0.151616
v 0.211785 -0.011687 -0.151616
v 0.174588 0.026478 -0.187953
v 0.169434 -0.011687 -0.187953
v 0.303788 0.026478 -0.187953
v 0.312042 -0.011687 -0.187953
v 0.211785 0.026478 -0.042007
v 0.211785 -0.011687 -0.042007
v 0.268579 0.026478 -0.042007
v 0.268579 -0.011687 -0.042007
v 0.268579 0.026478 -0.151616
v 0.268579 -0.011687 -0.271676
v 0.268579 -0.011687 -0.151616
v 0.268579 0.026478 -0.256192
v 0.238559 0.144028 -0.185223
v 0.238559 0.144028 -0.273056
v 0.349385 -0.011687 -0.041928
v 0.349385 0.026478 -0.041928
v 0.292591 0.026478 -0.041928
v 0.292591 -0.011687 -0.041928
v 0.211785 -0.011687 -0.192156
v 0.211785 0.026478 -0.198978
v 0.268579 0.026478 -0.201051
v 0.268579 -0.011687 -0.191293
v 0.194928 -0.011687 -0.039147
v 0.194928 0.026478 -0.039147
v 0.138636 0.026478 -0.039147
v 0.138636 -0.011687 -0.039147
v 0.268579 0.121264 -0.201051
v 0.211785 0.121264 -0.198978
v 0.268579 0.121264 -0.256192
v 0.211785 0.121264 -0.262492
v 0.185361 -0.011687 -0.151616
v 0.205162 0.026478 -0.268317
v 0.185361 0.026478 -0.151616
v 0.205162 -0.011687 -0.268317
v 0.290229 0.026478 -0.189629
v 0.290229 -0.011687 -0.189629
v 0.191905 -0.011687 -0.190183
v 0.191905 0.026478 -0.190183
v 0.168504 -0.011687 -0.024447
v 0.168504 0.026478 -0.024447
v 0.320882 -0.011687 -0.030170
v 0.320882 0.026478 -0.030170
v 0.238559 0.026478 -0.022544
v 0.238559 -0.011687 -0.022544
v 0.238559 0.026478 -0.185223
v 0.238559 -0.011687 -0.191749
v 0.238559 -0.011687 -0.273056
v 0.238559 0.026478 -0.273056
v 0.238559 -0.011687 -0.151616
v 0.238559 0.026478 -0.151616
v 0.296870 0.026478 -0.151616
v 0.276775 -0.011687 -0.266641
v 0.296870 -0.011687 -0.151616
v 0.276775 0.026478 -0.266641
vn -0.9263 0.1251 -0.3554
vn 0.5234 0.0000 -0.8521
vn 0.8995 0.1945 -0.3913
vn 0.9890 0.0000 0.1482
vn 0.0000 -1.0000 0.0000
vn 0.0000 1.0000 0.0000
vn 0.6604 0.0000 -0.7509
vn -0.4570 0.0000 0.8895
vn -1.0000 0.0000 0.0000
vn 0.0459 0.0000 -0.9989
vn -0.9769 0.0000 0.2138
vn -0.9921 0.0000 -0.1252
vn -0.5880 0.0000 0.8089
vn 1.0000 0.0000 0.0000
vn -0.4416 0.0000 0.8972
vn -0.3838 0.0000 0.9234
vn 0.9447 0.2043 -0.2566
vn -0.9028 0.1219 -0.4125
vn 0.9690 0.0000 -0.2469
vn -0.6696 0.0000 -0.7427
vn -0.6477 0.7619 0.0000
vn -0.3670 0.0000 -0.9302
vn 0.6042 0.7968 0.0000
vn 0.4861 0.0000 0.8739
vn 0.5440 0.0000 0.8391
vn 0.4664 0.0000 0.8846
vn 0.3813 0.0000 0.9244
vn -0.3527 0.2763 -0.8940
vn 0.4898 0.0000 -0.8719
vn -0.7633 0.2429 -0.5987
vn -0.9542 0.0000 -0.2993
vn 0.5235 0.0000 -0.8521
vn -0.6526 0.2237 -0.7239
vn 0.4617 0.3335 -0.8219
vn -0.9769 0.1319 -0.1681
vn 0.9813 0.0000 -0.1927
vn 0.9200 0.1990 -0.3376
usemtl Pata
s off
f 13//1 2//1 14//1
f 7//2 64//2 66//2
f 8//3 16//3 15//3
f 35//4 11//4 36//4
f 48//5 3//5 16//5
f 50//6 6//6 13//6
f 9//7 46//7 44//7
f 18//5 61//5 56//5
f 46//5 31//5 49//5
f 40//8 57//8 25//8
f 38//5 43//5 51//5
f 12//9 17//9 11//9
f 58//5 22//5 34//5
f 60//10 22//10 59//10
f 47//6 24//6 33//6
f 45//6 37//6 52//6
f 23//11 29//11 21//11
f 62//6 17//6 55//6
f 37//12 1//12 38//12
f 17//13 56//13 55//13
f 20//14 21//14 19//14
f 37//15 51//15 52//15
f 29//16 53//16 54//16
f 65//5 27//5 53//5
f 28//17 4//17 8//17
f 54//6 8//6 63//6
f 5//18 14//18 1//18
f 15//19 3//19 7//19
f 65//5 16//5 4//5
f 45//6 13//6 5//6
f 49//5 12//5 43//5
f 57//6 11//6 62//6
f 61//5 34//5 23//5
f 47//6 21//6 63//6
f 14//5 43//5 1//5
f 11//6 50//6 45//6
f 44//20 2//20 6//20
f 26//21 40//21 25//21
f 60//22 42//22 26//22
f 42//9 32//9 40//9
f 9//6 50//6 32//6
f 41//23 25//23 39//23
f 2//5 49//5 14//5
f 45//6 36//6 11//6
f 24//14 39//14 33//14
f 31//5 59//5 58//5
f 35//5 43//5 12//5
f 52//24 35//24 36//24
f 62//6 19//6 21//6
f 55//25 20//25 19//25
f 39//26 57//26 33//26
f 12//5 58//5 61//5
f 34//5 64//5 48//5
f 54//27 27//27 28//27
f 60//28 10//28 9//28
f 60//29 41//29 24//29
f 21//6 57//6 62//6
f 20//5 61//5 23//5
f 23//5 48//5 65//5
f 7//6 47//6 15//6
f 15//6 63//6 8//6
f 65//5 30//5 23//5
f 29//6 63//6 21//6
f 66//30 22//30 24//30
f 13//31 6//31 2//31
f 7//32 3//32 64//32
f 8//3 4//3 16//3
f 35//4 12//4 11//4
f 48//5 64//5 3//5
f 50//6 44//6 6//6
f 9//33 10//33 46//33
f 18//5 12//5 61//5
f 46//5 10//5 31//5
f 40//8 32//8 57//8
f 38//5 1//5 43//5
f 12//9 18//9 17//9
f 58//5 59//5 22//5
f 60//34 24//34 22//34
f 47//6 66//6 24//6
f 45//6 5//6 37//6
f 23//11 30//11 29//11
f 62//6 11//6 17//6
f 37//35 5//35 1//35
f 17//13 18//13 56//13
f 20//14 23//14 21//14
f 37//15 38//15 51//15
f 29//16 30//16 53//16
f 65//5 4//5 27//5
f 28//36 27//36 4//36
f 54//6 28//6 8//6
f 5//18 13//18 14//18
f 15//37 16//37 3//37
f 65//5 48//5 16//5
f 45//6 50//6 13//6
f 49//5 31//5 12//5
f 57//6 32//6 11//6
f 61//5 58//5 34//5
f 47//6 33//6 21//6
f 14//5 49//5 43//5
f 11//6 32//6 50//6
f 44//20 46//20 2//20
f 26//21 42//21 40//21
f 60//22 9//22 42//22
f 42//9 9//9 32//9
f 9//6 44//6 50//6
f 41//23 26//23 25//23
f 2//5 46//5 49//5
f 45//6 52//6 36//6
f 24//14 41//14 39//14
f 31//5 10//5 59//5
f 35//5 51//5 43//5
f 52//24 51//24 35//24
f 62//6 55//6 19//6
f 55//25 56//25 20//25
f 39//26 25//26 57//26
f 12//5 31//5 58//5
f 34//5 22//5 64//5
f 54//27 53//27 27//27
f 60//10 59//10 10//10
f 60//29 26//29 41//29
f 21//6 33//6 57//6
f 20//5 56//5 61//5
f 23//5 34//5 48//5
f 7//6 66//6 47//6
f 15//6 47//6 63//6
f 65//5 53//5 30//5
f 29//6 54//6 63//6
f 66//2 64//2 22//2
