# Blender v2.79 (sub 0) OBJ File: ''
# www.blender.org
o Cylinder_Cylinder.002
v -0.002125 0.423823 -0.366932
v 0.007486 2.000436 0.008860
v 0.248943 0.423823 -0.275551
v 0.011228 2.000436 0.010222
v 0.382533 0.348018 -0.044166
v 0.013218 2.000436 0.013670
v 0.336137 0.348018 0.218955
v 0.012527 2.000436 0.017590
v 0.131465 0.423823 0.390695
v 0.009477 2.000436 0.020150
v -0.137906 0.399088 0.388275
v 0.005496 2.000436 0.020150
v -0.340387 0.348018 0.218955
v 0.002446 2.000436 0.017590
v -0.386782 0.348018 -0.044167
v 0.001755 2.000436 0.013670
v -0.255383 0.323283 -0.277972
v 0.003745 2.000436 0.010222
v -0.000895 0.562895 -0.318835
v 0.218518 0.562895 -0.238976
v 0.335265 0.562895 -0.036764
v 0.294719 0.562895 0.193182
v 0.115852 0.562895 0.343269
v -0.119832 0.538161 0.340849
v -0.296508 0.562895 0.193182
v -0.337054 0.562895 -0.036764
v -0.222498 0.538161 -0.241396
v 0.005868 1.722891 -0.054408
v 0.051249 1.722891 -0.037891
v 0.075396 1.722891 0.003932
v 0.067009 1.722891 0.051492
v 0.030015 1.722891 0.082534
v -0.020469 1.698156 0.080114
v -0.055273 1.722891 0.051492
v -0.063659 1.722891 0.003932
v -0.041703 1.698156 -0.040311
v 0.094676 1.421726 -0.090097
v 0.142864 1.421726 -0.006633
v 0.126129 1.421726 0.088278
v 0.052300 1.421726 0.150228
v -0.046266 1.396991 0.147807
v -0.117904 1.421726 0.088278
v -0.134639 1.421726 -0.006633
v -0.088642 1.396991 -0.092518
v 0.004112 1.421726 -0.123060
v 0.142587 1.089470 -0.147694
v 0.217298 1.089470 -0.018290
v 0.191351 1.089470 0.128863
v 0.076887 1.089470 0.224910
v -0.074727 1.064735 0.222489
v -0.187000 1.089470 0.128863
v -0.212947 1.089470 -0.018290
v -0.140427 1.064735 -0.150114
v 0.002175 1.089470 -0.198800
v 0.185293 0.793307 -0.199034
v 0.283646 0.793307 -0.028680
v 0.249489 0.793307 0.165038
v 0.098802 0.793307 0.291479
v -0.100096 0.768573 0.289059
v -0.248591 0.793307 0.165038
v -0.282749 0.793307 -0.028681
v -0.186586 0.768573 -0.201454
v 0.000449 0.793307 -0.266311
v 0.006122 1.703326 -0.099205
v 0.078058 1.703326 -0.073022
v 0.114144 1.678591 -0.009145
v 0.103042 1.703326 0.068665
v 0.044399 1.703326 0.117873
v -0.034345 1.678591 0.115452
v -0.090798 1.703326 0.068665
v -0.104091 1.703326 -0.006725
v -0.068005 1.678591 -0.075442
v 0.004189 1.401201 -0.176405
v 0.126910 1.401202 -0.131738
v 0.190017 1.376467 -0.021059
v 0.169530 1.401202 0.109974
v 0.069487 1.401202 0.193920
v -0.063300 1.376467 0.191500
v -0.161152 1.401201 0.109974
v -0.183830 1.401202 -0.018638
v -0.120722 1.376467 -0.134158
v 0.002065 1.069135 -0.262103
v 0.181147 1.069135 -0.196923
v 0.274243 1.044401 -0.034300
v 0.243341 1.069135 0.155800
v 0.097352 1.069135 0.278300
v -0.095414 1.044401 0.275879
v -0.239212 1.069135 0.155800
v -0.272305 1.069135 -0.031880
v -0.179209 1.044401 -0.199343
v 0.000156 0.770780 -0.324651
v 0.220589 0.770780 -0.244420
v 0.335688 0.746046 -0.043688
v 0.297145 0.770780 0.189749
v 0.117446 0.770780 0.340534
v -0.119325 0.746046 0.338114
v -0.296833 0.770780 0.189749
v -0.337568 0.770780 -0.041267
v -0.222469 0.746046 -0.246840
v 0.261663 0.539634 -0.293751
v 0.399405 0.514899 -0.053802
v 0.352998 0.539634 0.224231
v 0.138609 0.539634 0.404125
v -0.143446 0.514899 0.401704
v -0.355644 0.539634 0.224231
v -0.404242 0.539634 -0.051382
v -0.266501 0.514899 -0.296172
v -0.001323 0.539634 -0.389471
v 0.291933 0.327968 -0.330174
v 0.446502 0.303233 -0.061080
v 0.394251 0.327968 0.250096
v 0.154082 0.327968 0.451621
v -0.161628 0.303233 0.449201
v -0.399605 0.327968 0.250095
v -0.454047 0.327968 -0.058660
v -0.299479 0.303233 -0.332595
v -0.002677 0.327968 -0.437404
v -0.007377 0.458696 -0.145705
v 0.090252 0.458696 -0.110171
v 0.142199 0.458696 -0.020197
v 0.124158 0.458696 0.082119
v 0.044570 0.458696 0.148900
v -0.059324 0.458696 0.148900
v -0.138911 0.458696 0.082119
v -0.156952 0.458696 -0.020197
v -0.105005 0.458696 -0.110171
vn 0.3238 0.3221 -0.8896
vn 0.8212 0.3176 -0.4741
vn 0.8754 0.3013 -0.3779
vn 0.9442 0.2843 0.1665
vn 0.9538 0.2977 0.0415
vn 0.6108 0.3112 0.7280
vn 0.6109 0.3112 0.7280
vn 0.0000 0.3125 0.9499
vn -0.1220 0.2957 0.9475
vn -0.6146 0.2930 0.7324
vn -0.5265 0.3019 0.7948
vn -0.9327 0.3210 0.1645
vn 0.0000 1.0000 0.0000
vn 0.0000 1.0000 0.0001
vn 0.0000 1.0000 0.0002
vn 0.0000 1.0000 -0.0001
vn -0.3251 0.3103 -0.8933
vn -0.3838 0.3172 -0.8672
vn -0.8192 0.3243 -0.4730
vn -0.7883 0.3162 -0.5278
vn 0.4476 -0.8275 0.3391
vn 0.2833 -0.9577 -0.0500
vn 0.0761 -0.8755 0.4771
vn -0.3977 -0.9148 -0.0701
vn 0.0587 -0.9851 -0.1614
vn -0.0537 -0.9876 0.1475
vn -0.7663 0.4264 -0.4805
vn -0.7670 0.4346 -0.4720
vn -0.3399 0.4351 -0.8338
vn -0.3325 0.4269 -0.8409
vn -0.8898 0.4285 0.1569
vn -0.5430 0.4294 0.7216
vn -0.5569 0.4182 0.7176
vn -0.0525 0.4112 0.9100
vn -0.0402 0.4244 0.9046
vn 0.5844 0.4163 0.6965
vn 0.9126 0.3759 0.1609
vn 0.9035 0.4116 0.1190
vn 0.7854 0.4214 -0.4534
vn 0.8138 0.3891 -0.4317
vn 0.3093 0.4266 -0.8499
vn -0.7627 0.3242 -0.5597
vn -0.7919 0.3421 -0.5058
vn -0.4282 0.3484 -0.8338
vn -0.3606 0.3324 -0.8715
vn -0.9279 0.3351 0.1636
vn -0.4371 0.3457 0.8303
vn -0.5565 0.3224 0.7658
vn -0.1918 0.3000 0.9345
vn -0.0796 0.3356 0.9386
vn 0.6078 0.3254 0.7244
vn 0.9398 0.2990 0.1657
vn 0.9444 0.3169 0.0878
vn 0.8175 0.3300 -0.4720
vn 0.8536 0.3125 -0.4169
vn 0.3224 0.3342 -0.8857
vn 0.3209 0.3458 -0.8817
vn 0.8138 0.3419 -0.4699
vn 0.8413 0.3246 -0.4322
vn 0.9352 0.3135 0.1649
vn 0.9368 0.3323 0.1091
vn 0.6047 0.3390 0.7207
vn -0.1053 0.3276 0.9389
vn -0.0564 0.3478 0.9359
vn -0.5222 0.3545 0.7757
vn -0.5680 0.3390 0.7500
vn -0.9230 0.3487 0.1627
vn -0.3765 0.3559 -0.8553
vn -0.3488 0.3456 -0.8712
vn -0.7834 0.3430 -0.5183
vn -0.7944 0.3537 -0.4939
vn -0.7930 0.3462 -0.5012
vn -0.7974 0.3537 -0.4890
vn -0.3566 0.3542 -0.8645
vn -0.3436 0.3468 -0.8727
vn -0.9228 0.3491 0.1627
vn -0.5527 0.3515 0.7556
vn -0.5747 0.3403 0.7443
vn -0.0693 0.3324 0.9406
vn -0.0458 0.3464 0.9370
vn 0.6048 0.3385 0.7208
vn 0.9361 0.3105 0.1651
vn 0.9353 0.3332 0.1191
vn 0.8139 0.3418 -0.4699
vn 0.8380 0.3215 -0.4409
vn 0.3209 0.3461 -0.8816
vn 0.3114 0.4133 -0.8557
vn 0.7905 0.4084 -0.4564
vn 0.8188 0.3793 -0.4309
vn 0.9163 0.3664 0.1616
vn 0.9098 0.3984 0.1164
vn 0.5881 0.4035 0.7009
vn -0.0605 0.3972 0.9158
vn -0.0439 0.4117 0.9103
vn -0.5408 0.4169 0.7306
vn -0.5585 0.4047 0.7241
vn -0.8960 0.4150 0.1580
vn -0.3463 0.4220 -0.8379
vn -0.3363 0.4132 -0.8463
vn -0.7697 0.4123 -0.4874
vn -0.7716 0.4211 -0.4767
vn 0.2880 -0.8428 0.4546
vn -0.0015 -0.8732 0.4874
vn 0.3722 -0.9010 0.2231
vn 0.5115 -0.7864 0.3464
vn 0.4511 -0.8889 -0.0795
vn 0.0137 -0.8771 -0.4802
vn 0.0601 -0.7179 -0.6935
vn 0.2660 -0.7934 -0.5475
vn 0.4311 -0.8504 -0.3015
vn -0.3049 -0.8804 -0.3633
vn -0.7320 -0.6725 0.1093
vn -0.4465 -0.8913 -0.0787
vn -0.5794 -0.8150 0.0117
vn -0.6421 -0.6711 0.3707
vn -0.1439 -0.9072 0.3954
vn -0.1295 -0.9255 0.3559
vn -0.4691 -0.8803 0.0708
vn -0.5938 -0.7279 0.3428
vn -0.6875 -0.7256 0.0295
vn -0.3976 -0.9149 -0.0701
vn -0.2691 -0.9081 -0.3207
vn 0.1697 -0.8646 -0.4729
vn 0.2370 -0.9116 -0.3358
vn 0.0957 -0.9148 -0.3924
vn 0.1400 -0.8433 -0.5188
vn 0.3987 -0.9144 -0.0703
vn 0.2690 -0.9298 0.2510
vn 0.3447 -0.8759 0.3375
vn 0.2874 -0.8923 0.3481
vn 0.1455 -0.9273 0.3450
vn 0.2538 -0.9265 0.2779
vn 0.1601 -0.9505 0.2664
vn 0.2088 -0.9509 0.2283
vn 0.2602 -0.9194 0.2949
vn 0.3356 -0.9401 -0.0592
vn 0.1040 -0.9422 -0.3186
vn 0.1411 -0.9022 -0.4076
vn 0.1219 -0.9111 -0.3937
vn 0.1584 -0.9416 -0.2973
vn -0.2263 -0.9360 -0.2697
vn -0.6204 -0.7843 0.0012
vn -0.3368 -0.9397 -0.0594
vn -0.3836 -0.9201 0.0796
vn -0.5353 -0.7861 0.3090
vn -0.1107 -0.9462 0.3041
vn -0.1302 -0.9247 0.3577
vn -0.4135 -0.9017 0.1260
vn -0.5790 -0.7437 0.3343
vn -0.6773 -0.7350 -0.0339
vn -0.3965 -0.9154 -0.0699
vn -0.2660 -0.9104 -0.3170
vn 0.0975 -0.8899 -0.4457
vn 0.1189 -0.9192 -0.3755
vn 0.1693 -0.9191 -0.3557
vn 0.2005 -0.8866 -0.4169
vn 0.3927 -0.9170 -0.0693
vn 0.2077 -0.9316 0.2982
vn 0.2407 -0.9059 0.3486
vn 0.3085 -0.9084 0.2821
vn 0.2442 -0.9316 0.2693
vn 0.2690 -0.9313 0.2455
vn 0.2115 -0.9492 0.2331
vn 0.1796 -0.9491 0.2588
vn 0.2102 -0.9290 0.3047
vn 0.3381 -0.9392 -0.0596
vn 0.1444 -0.9417 -0.3039
vn 0.1720 -0.9172 -0.3595
vn 0.0840 -0.9199 -0.3830
vn 0.1021 -0.9418 -0.3204
vn -0.2282 -0.9348 -0.2720
vn -0.6039 -0.7965 -0.0299
vn -0.3421 -0.9377 -0.0603
vn -0.3591 -0.9267 0.1106
vn -0.5192 -0.8003 0.2998
vn -0.1133 -0.9435 0.3114
vn -0.2817 -0.5673 0.7738
vn -0.7453 -0.5495 0.3776
vn -0.5629 -0.8247 0.0548
vn -0.5790 -0.8147 -0.0325
vn -0.3002 -0.9524 -0.0529
vn -0.2001 -0.9503 -0.2385
vn -0.6561 -0.5090 -0.5572
vn 0.0478 -0.5277 -0.8481
vn 0.0576 -0.5456 -0.8360
vn 0.5020 -0.5490 -0.6683
vn 0.2914 -0.9547 -0.0605
vn 0.2956 -0.9539 -0.0521
vn 0.4603 -0.5276 0.7140
vn 0.1593 -0.9614 0.2243
vn 0.2353 -0.9471 0.2183
vn 0.1835 -0.9615 0.2048
s off
f 64//1 2//1 4//1
f 64//1 4//1 65//1
f 65//2 4//2 6//2
f 65//3 6//3 66//3
f 66//4 6//4 8//4
f 66//5 8//5 67//5
f 67//6 8//6 10//6
f 67//7 10//7 68//7
f 68//8 10//8 12//8
f 68//9 12//9 69//9
f 69//10 12//10 14//10
f 69//11 14//11 70//11
f 70//12 14//12 16//12
f 70//12 16//12 71//12
f 4//13 8//13 6//13
f 12//13 10//13 8//13
f 16//14 14//14 12//14
f 2//15 18//15 16//15
f 4//13 2//13 8//13
f 16//13 12//13 8//13
f 2//16 16//16 8//16
f 72//17 18//17 2//17
f 72//18 2//18 64//18
f 71//19 16//19 18//19
f 71//20 18//20 72//20
f 1//21 15//21 17//21
f 11//22 13//22 15//22
f 7//23 9//23 11//23
f 3//24 5//24 7//24
f 1//25 3//25 15//25
f 7//26 11//26 15//26
f 3//25 7//25 15//25
f 115//27 26//27 27//27
f 115//28 27//28 116//28
f 116//29 27//29 19//29
f 116//30 19//30 117//30
f 114//31 25//31 26//31
f 114//31 26//31 115//31
f 113//32 24//32 25//32
f 113//33 25//33 114//33
f 112//34 23//34 24//34
f 112//35 24//35 113//35
f 111//36 22//36 23//36
f 111//36 23//36 112//36
f 110//37 21//37 22//37
f 110//38 22//38 111//38
f 109//39 20//39 21//39
f 109//40 21//40 110//40
f 117//41 19//41 20//41
f 117//41 20//41 109//41
f 80//42 35//42 36//42
f 80//43 36//43 81//43
f 81//44 36//44 28//44
f 81//45 28//45 73//45
f 79//46 34//46 35//46
f 79//46 35//46 80//46
f 78//47 33//47 34//47
f 78//48 34//48 79//48
f 77//49 32//49 33//49
f 77//50 33//50 78//50
f 76//51 31//51 32//51
f 76//51 32//51 77//51
f 75//52 30//52 31//52
f 75//53 31//53 76//53
f 74//54 29//54 30//54
f 74//55 30//55 75//55
f 73//56 28//56 29//56
f 73//56 29//56 74//56
f 82//57 45//57 37//57
f 82//57 37//57 83//57
f 83//58 37//58 38//58
f 83//59 38//59 84//59
f 84//60 38//60 39//60
f 84//61 39//61 85//61
f 85//62 39//62 40//62
f 85//62 40//62 86//62
f 86//63 40//63 41//63
f 86//64 41//64 87//64
f 87//65 41//65 42//65
f 87//66 42//66 88//66
f 88//67 42//67 43//67
f 88//67 43//67 89//67
f 90//68 44//68 45//68
f 90//69 45//69 82//69
f 89//70 43//70 44//70
f 89//71 44//71 90//71
f 98//72 52//72 53//72
f 98//73 53//73 99//73
f 99//74 53//74 54//74
f 99//75 54//75 91//75
f 97//76 51//76 52//76
f 97//76 52//76 98//76
f 96//77 50//77 51//77
f 96//78 51//78 97//78
f 95//79 49//79 50//79
f 95//80 50//80 96//80
f 94//81 48//81 49//81
f 94//81 49//81 95//81
f 93//82 47//82 48//82
f 93//83 48//83 94//83
f 92//84 46//84 47//84
f 92//85 47//85 93//85
f 91//86 54//86 46//86
f 91//86 46//86 92//86
f 108//87 63//87 55//87
f 108//87 55//87 100//87
f 100//88 55//88 56//88
f 100//89 56//89 101//89
f 101//90 56//90 57//90
f 101//91 57//91 102//91
f 102//92 57//92 58//92
f 102//92 58//92 103//92
f 103//93 58//93 59//93
f 103//94 59//94 104//94
f 104//95 59//95 60//95
f 104//96 60//96 105//96
f 105//97 60//97 61//97
f 105//97 61//97 106//97
f 107//98 62//98 63//98
f 107//99 63//99 108//99
f 106//100 61//100 62//100
f 106//101 62//101 107//101
f 35//102 71//102 72//102
f 35//103 72//103 36//103
f 36//104 72//104 64//104
f 36//105 64//105 28//105
f 34//106 70//106 71//106
f 34//106 71//106 35//106
f 33//107 69//107 70//107
f 33//108 70//108 34//108
f 32//109 68//109 69//109
f 32//110 69//110 33//110
f 31//111 67//111 68//111
f 31//111 68//111 32//111
f 30//112 66//112 67//112
f 30//113 67//113 31//113
f 29//114 65//114 66//114
f 29//115 66//115 30//115
f 28//116 64//116 65//116
f 28//116 65//116 29//116
f 45//117 73//117 74//117
f 45//117 74//117 37//117
f 37//118 74//118 75//118
f 37//119 75//119 38//119
f 38//120 75//120 76//120
f 38//121 76//121 39//121
f 39//122 76//122 77//122
f 39//122 77//122 40//122
f 40//123 77//123 78//123
f 40//124 78//124 41//124
f 41//125 78//125 79//125
f 41//126 79//126 42//126
f 42//127 79//127 80//127
f 42//127 80//127 43//127
f 44//128 81//128 73//128
f 44//129 73//129 45//129
f 43//130 80//130 81//130
f 43//131 81//131 44//131
f 52//132 89//132 90//132
f 52//133 90//133 53//133
f 53//134 90//134 82//134
f 53//135 82//135 54//135
f 51//136 88//136 89//136
f 51//136 89//136 52//136
f 50//137 87//137 88//137
f 50//138 88//138 51//138
f 49//139 86//139 87//139
f 49//140 87//140 50//140
f 48//141 85//141 86//141
f 48//141 86//141 49//141
f 47//142 84//142 85//142
f 47//143 85//143 48//143
f 46//144 83//144 84//144
f 46//145 84//145 47//145
f 54//146 82//146 83//146
f 54//146 83//146 46//146
f 63//147 91//147 92//147
f 63//147 92//147 55//147
f 55//148 92//148 93//148
f 55//149 93//149 56//149
f 56//150 93//150 94//150
f 56//151 94//151 57//151
f 57//152 94//152 95//152
f 57//152 95//152 58//152
f 58//153 95//153 96//153
f 58//154 96//154 59//154
f 59//155 96//155 97//155
f 59//156 97//156 60//156
f 60//157 97//157 98//157
f 60//157 98//157 61//157
f 62//158 99//158 91//158
f 62//159 91//159 63//159
f 61//160 98//160 99//160
f 61//161 99//161 62//161
f 26//162 106//162 107//162
f 26//163 107//163 27//163
f 27//164 107//164 108//164
f 27//165 108//165 19//165
f 25//166 105//166 106//166
f 25//166 106//166 26//166
f 24//167 104//167 105//167
f 24//168 105//168 25//168
f 23//169 103//169 104//169
f 23//170 104//170 24//170
f 22//171 102//171 103//171
f 22//171 103//171 23//171
f 21//172 101//172 102//172
f 21//173 102//173 22//173
f 20//174 100//174 101//174
f 20//175 101//175 21//175
f 19//176 108//176 100//176
f 19//176 100//176 20//176
f 1//177 117//177 109//177
f 1//177 109//177 3//177
f 3//178 109//178 110//178
f 3//179 110//179 5//179
f 5//180 110//180 111//180
f 5//181 111//181 7//181
f 7//182 111//182 112//182
f 7//183 112//183 9//183
f 9//184 112//184 113//184
f 9//185 113//185 11//185
f 11//186 113//186 114//186
f 11//187 114//187 13//187
f 13//188 114//188 115//188
f 13//188 115//188 15//188
f 117//189 1//189 17//189
f 117//190 17//190 116//190
f 15//191 115//191 116//191
f 15//192 116//192 17//192
f 119//13 121//13 120//13
f 123//13 122//13 121//13
f 125//13 124//13 123//13
f 118//13 126//13 125//13
f 119//13 118//13 121//13
f 125//13 123//13 121//13
f 118//13 125//13 121//13
